<?xml version="1.0" standalone="no"?><!DOCTYPE svg PUBLIC "-//W3C//DTD SVG 1.1//EN" "http://www.w3.org/Graphics/SVG/1.1/DTD/svg11.dtd"><svg t="1528872646064" class="icon" style="" viewBox="0 0 1024 1024" version="1.1" xmlns="http://www.w3.org/2000/svg" p-id="1055" xmlns:xlink="http://www.w3.org/1999/xlink" width="200" height="200"><defs><style type="text/css"></style></defs><path d="M558 171.2v573.7c0 0.1 0.2 0.2 0.2 0.1l208-216.4c16.8-17.5 44.7-18.1 62.2-1.2 17.5 16.8 18.1 44.7 1.2 62.2L546.5 884.2c-8.3 8.6-19.8 13.5-31.7 13.5-12 0-23.4-4.9-31.7-13.5L198.3 588c-8.2-8.5-12.3-19.5-12.3-30.5 0-11.6 4.5-23.1 13.5-31.7 17.5-16.8 45.4-16.3 62.2 1.2l208 216.4c0.1 0.1 0.2 0 0.2-0.1V170.2c0-23.4 18.3-42.5 41.3-43.9 25.6-1.5 46.8 19.4 46.8 44.9z" p-id="1056"></path></svg>