<?xml version="1.0" standalone="no"?><!DOCTYPE svg PUBLIC "-//W3C//DTD SVG 1.1//EN" "http://www.w3.org/Graphics/SVG/1.1/DTD/svg11.dtd"><svg t="1528869361879" class="icon" style="" viewBox="0 0 1024 1024" version="1.1" xmlns="http://www.w3.org/2000/svg" p-id="1114" xmlns:xlink="http://www.w3.org/1999/xlink" width="200" height="200"><defs><style type="text/css"></style></defs><path d="M900.37 545.52L952 274.45a101.35 101.35 0 0 0-99.56-120.31h-592l-0.51-3.46A101.35 101.35 0 0 0 159.63 64h-57.42a32 32 0 0 0 0 64h57.42a37.56 37.56 0 0 1 37 31.95l4.51 30.81L266.21 636l6.79 46.6a101.35 101.35 0 0 0 100.29 86.69h517.83a32 32 0 0 0 0-64H373.31a37.56 37.56 0 0 1-37-31.95l-2.06-14.06 508.39-60a66.42 66.42 0 0 0 57.73-53.76z m-65.19-9.81L325 595.92l-18-123.16-37.22-254.62h582.64a37.35 37.35 0 0 1 36.69 44.34L837.5 533.55a2.67 2.67 0 0 1-2.32 2.16zM385.93 774.63a92.68 92.68 0 1 0 92.68 92.68 92.79 92.79 0 0 0-92.68-92.68z m0 121.37a28.68 28.68 0 1 1 28.68-28.68A28.72 28.72 0 0 1 385.93 896zM791.93 774.63a92.68 92.68 0 1 0 92.68 92.68 92.79 92.79 0 0 0-92.68-92.68z m0 121.37a28.68 28.68 0 1 1 28.68-28.68A28.72 28.72 0 0 1 791.93 896z" fill="#333333" p-id="1115"></path></svg>