<?xml version="1.0" encoding="utf-8"?>
<!-- Generator: Adobe Illustrator 16.0.0, SVG Export Plug-In . SVG Version: 6.00 Build 0)  -->
<!DOCTYPE svg PUBLIC "-//W3C//DTD SVG 1.1//EN" "http://www.w3.org/Graphics/SVG/1.1/DTD/svg11.dtd">
<svg version="1.1" id="图层_1" xmlns="http://www.w3.org/2000/svg" xmlns:xlink="http://www.w3.org/1999/xlink" x="0px" y="0px"
	 width="200px" height="200px" viewBox="0 0 200 200" enable-background="new 0 0 200 200" xml:space="preserve">
<path fill="#231815" d="M91.797,166.563V54.512c0-0.02-0.039-0.039-0.039-0.02L51.133,96.758c-3.281,3.418-8.73,3.535-12.148,0.234
	c-3.418-3.281-3.535-8.73-0.234-12.148l55.313-57.559c1.621-1.68,3.867-2.637,6.191-2.637c2.344,0,4.57,0.957,6.191,2.637
	l55.605,57.871c1.602,1.66,2.402,3.809,2.402,5.957c0,2.266-0.879,4.512-2.637,6.191c-3.418,3.281-8.867,3.184-12.148-0.234
	l-40.625-42.266c-0.02-0.02-0.039,0-0.039,0.02v111.934c0,4.57-3.574,8.301-8.066,8.574
	C95.938,175.625,91.797,171.543,91.797,166.563z"/>
</svg>
