<?xml version="1.0" encoding="utf-8"?>
<!-- Generator: Adobe Illustrator 16.0.0, SVG Export Plug-In . SVG Version: 6.00 Build 0)  -->
<!DOCTYPE svg PUBLIC "-//W3C//DTD SVG 1.1//EN" "http://www.w3.org/Graphics/SVG/1.1/DTD/svg11.dtd">
<svg version="1.1" id="图层_1" xmlns="http://www.w3.org/2000/svg" xmlns:xlink="http://www.w3.org/1999/xlink" x="0px" y="0px"
	 width="200px" height="200px" viewBox="0 0 200 200" enable-background="new 0 0 200 200" xml:space="preserve">
<path fill="#231815" d="M108.984,33.438v112.051c0,0.02,0.039,0.039,0.039,0.02l40.625-42.266c3.281-3.418,8.73-3.535,12.148-0.234
	c3.418,3.281,3.535,8.73,0.234,12.148l-55.293,57.539c-1.621,1.68-3.867,2.637-6.191,2.637c-2.344,0-4.57-0.957-6.191-2.637
	L38.73,114.844c-1.602-1.66-2.402-3.809-2.402-5.957c0-2.266,0.879-4.512,2.637-6.191c3.418-3.281,8.867-3.184,12.148,0.234
	l40.625,42.266c0.02,0.02,0.039,0,0.039-0.02V33.242c0-4.57,3.574-8.301,8.066-8.574C104.844,24.375,108.984,28.457,108.984,33.438z
	"/>
</svg>
