<?xml version="1.0" encoding="utf-8"?>
<!-- Generator: Adobe Illustrator 16.0.0, SVG Export Plug-In . SVG Version: 6.00 Build 0)  -->
<!DOCTYPE svg PUBLIC "-//W3C//DTD SVG 1.1//EN" "http://www.w3.org/Graphics/SVG/1.1/DTD/svg11.dtd">
<svg version="1.1" id="图层_1" xmlns="http://www.w3.org/2000/svg" xmlns:xlink="http://www.w3.org/1999/xlink" x="0px" y="0px"
	 width="200px" height="200px" viewBox="0 0 200 200" enable-background="new 0 0 200 200" xml:space="preserve">
<path fill="#231815" d="M162.121,69.105l-5.854,110.877c-0.216,4.072-3.58,7.266-7.658,7.266H51.391c-4.08,0-7.444-3.193-7.66-7.266
	L37.878,69.105c-0.223-4.23,3.025-7.841,7.255-8.064c4.25-0.205,7.842,3.026,8.064,7.255l5.469,103.612h82.666l5.469-103.612
	c0.225-4.231,3.859-7.447,8.064-7.255C159.096,61.265,162.344,64.875,162.121,69.105z M182.454,43.433
	c0,4.236-3.435,7.67-7.671,7.67H25.216c-4.236,0-7.67-3.434-7.67-7.67s3.434-7.67,7.67-7.67h42.186V18.505
	c0-3.707,2.472-5.753,6.179-5.753h52.837c3.707,0,6.18,2.046,6.18,5.753v17.258h42.187C179.02,35.763,182.454,39.197,182.454,43.433
	z M80.825,35.763h38.351v-9.588H80.825V35.763z M84.041,160.402c0.054,0,0.107,0,0.161,0c3.706,0,6.638-3.564,6.551-7.271
	l-1.95-82.904c-0.087-3.706-3.126-6.734-6.868-6.652c-3.706,0.087-6.638,3.111-6.551,6.817l1.95,83.081
	C77.42,157.124,80.407,160.402,84.041,160.402z M115.666,160.402c3.633,0,6.621-3.082,6.707-6.733l1.95-82.793
	c0.087-3.706-2.847-6.826-6.552-6.913c-3.765-0.054-6.781,2.824-6.867,6.529l-1.951,82.874c-0.086,3.704,2.846,7.036,6.552,7.036
	C115.561,160.402,115.613,160.402,115.666,160.402z"/>
</svg>
