<?xml version="1.0" encoding="utf-8"?>
<!-- Generator: Adobe Illustrator 16.0.0, SVG Export Plug-In . SVG Version: 6.00 Build 0)  -->
<!DOCTYPE svg PUBLIC "-//W3C//DTD SVG 1.1//EN" "http://www.w3.org/Graphics/SVG/1.1/DTD/svg11.dtd">
<svg version="1.1" id="图层_1" xmlns="http://www.w3.org/2000/svg" xmlns:xlink="http://www.w3.org/1999/xlink" x="0px" y="0px"
	 width="200.195px" height="200px" viewBox="0 0 200.195 200" enable-background="new 0 0 200.195 200" xml:space="preserve">
<path fill="#231815" d="M99.989,187.248c-48.255,0-87.511-39.255-87.511-87.511c0-48.255,39.256-87.511,87.511-87.511
	c48.257,0,87.512,39.255,87.512,87.511C187.501,147.993,148.246,187.248,99.989,187.248L99.989,187.248z M99.989,24.784
	c-41.33,0-74.953,33.624-74.953,74.953c0,41.324,33.623,74.955,74.953,74.955c41.324,0,74.954-33.631,74.954-74.955
	C174.943,58.407,141.313,24.784,99.989,24.784L99.989,24.784z"/>
<path fill="#231815" d="M141.982,76.528c-2.451-2.431-6.414-2.407-8.838,0.05l-45.569,46.068l-20.172-20.728
	c-2.412-2.482-6.37-2.526-8.837-0.125c-2.477,2.407-2.532,6.37-0.125,8.839l24.615,25.297c0.013,0.018,0.037,0.018,0.05,0.037
	c0.013,0.012,0.019,0.037,0.031,0.049c0.394,0.389,0.881,0.627,1.344,0.889c0.244,0.132,0.438,0.35,0.688,0.45
	c0.756,0.313,1.563,0.468,2.362,0.468c0.794,0,1.588-0.154,2.338-0.455c0.244-0.101,0.431-0.301,0.663-0.426
	c0.468-0.262,0.957-0.493,1.356-0.887c0.012-0.013,0.019-0.039,0.037-0.051c0.012-0.019,0.031-0.025,0.05-0.037l50.05-50.594
	C144.458,82.91,144.433,78.954,141.982,76.528L141.982,76.528z"/>
</svg>
